# xmcd
#
# Track frame offsets:
#	150
#	18317
#	39947
#	53862
#	73482
#	90942
#	107992
#	122685
#	140280
#	160897
#	179095
#	195385
#	214752
#	230965
#	247570
#	270197
#
# Disc length: 3850 seconds
# Revision: 0
# Processed by: cddbd v1.5.2PL0 Copyright (c) Steve Scherf et al.
# Submitted via: dBpowerAMP V12.0
#
DISCID=d90f0810
DTITLE=Celtic Spirit - Celtic Dreams
DYEAR=1900
DGENRE=
TTITLE0=Riverdance
TTITLE1=Celtic Spirit Medley
TTITLE2=Ta Muid
TTITLE3=How Can I Keep From Singing
TTITLE4=Fear Is The Enemy
TTITLE5=The Last Crossing
TTITLE6=Martha's Harbour
TTITLE7=Earthjig
TTITLE8=Le Coeur
TTITLE9=Mystic Lipstick
TTITLE10=Ailein Duinn
TTITLE11=Will Ye Go Lassie Go
TTITLE12=Daire's Dream
TTITLE13=Air Song
TTITLE14=Song For Ireland
TTITLE15=Lord Of The Dance/Earthjig Reprise
EXTD=
EXTT0=
EXTT1=
EXTT2=
EXTT3=
EXTT4=
EXTT5=
EXTT6=
EXTT7=
EXTT8=
EXTT9=
EXTT10=
EXTT11=
EXTT12=
EXTT13=
EXTT14=
EXTT15=
PLAYORDER=
